# xmcd
#
# Track frame offsets:
#	183
#	15930
#	33560
#	54785
#	70013
#	87573
#	105928
#	124933
#	141220
#	160965
#	181680
#	198528
#	216355
#	234025
#	250185
#	267823
#	287558
#	304063
#	323700
#
# Disc length: 4526 seconds
#
# Revision: 0
# Processed by: cddbd v1.5.1PL2 Copyright (c) Steve Scherf et al.
# Submitted via: audiograbber 1.83.01
#
DISCID=fb11ac13
DTITLE=Compilation - It Takes Two ( Disc 2 )
DYEAR=1900
DGENRE=
TTITLE0=The Surpremes and The Originals - I´m Gonna Make You Love Me
TTITLE1=Jonny Bristol and Liz Lands - Hang On In There Baby
TTITLE2=The Fifth Dimension - Love Hangover
TTITLE3=Mary Wells - My Guy
TTITLE4=Ronnie McNeir and Pat Lewis - We´re Incredible
TTITLE5=G C Cameron - I´ll Be Around
TTITLE6=Kim Weston - It´s Too Late
TTITLE7=Mary Wells and Frankie Gaye - Once Upon A Time
TTITLE8=Billie Calvin - Wishing On A Star
TTITLE9=Syreeta - With You I´m Born Again
TTITLE10=Frances Nero and Gino Parks - Your Precious Love
TTITLE11=Hank Dixon - Save Me I´m All Alone
TTITLE12=Hattie Littles - Youre Love Is Wonderful
TTITLE13=The Velvelettes - Come See About Me
TTITLE14=Kim Weston and Frankie Gaye - You Ain´t Livin´Till You´re Livin´
TTITLE15=Jean Terrell - Everything To Me
TTITLE16=Joe Stubbs - You´re So Fine
TTITLE17=JJ and Ortheia Barnes - Send Some Love
TTITLE18=Richard `POPCORN` Wylie - With This Ring
EXTD=
EXTT0=
EXTT1=
EXTT2=
EXTT3=
EXTT4=
EXTT5=
EXTT6=
EXTT7=
EXTT8=
EXTT9=
EXTT10=
EXTT11=
EXTT12=
EXTT13=
EXTT14=
EXTT15=
EXTT16=
EXTT17=
EXTT18=
PLAYORDER=
